<mxfile host="Electron" agent="Mozilla/5.0 (Macintosh; Intel Mac OS X 10_15_7) AppleWebKit/537.36 (KHTML, like Gecko) draw.io/26.0.9 Chrome/128.0.6613.186 Electron/32.2.5 Safari/537.36" version="26.0.9">
  <diagram name="Page-1" id="KPLoOtIkAREZE4EvZQdS">
    <mxGraphModel dx="1041" dy="2098" grid="1" gridSize="10" guides="1" tooltips="1" connect="1" arrows="1" fold="1" page="1" pageScale="1" pageWidth="827" pageHeight="1169" math="0" shadow="0">
      <root>
        <mxCell id="0" />
        <mxCell id="1" parent="0" />
        <mxCell id="26Rw4SoQIi2yUt5TS9dY-15" value="GPT 4o-mini" style="image;aspect=fixed;html=1;points=[];align=center;fontSize=12;image=img/lib/azure2/ai_machine_learning/Azure_OpenAI.svg;" parent="1" vertex="1">
          <mxGeometry x="40" y="-130" width="80" height="80" as="geometry" />
        </mxCell>
        <mxCell id="26Rw4SoQIi2yUt5TS9dY-17" value="National Archives&lt;div&gt;Judgments&lt;/div&gt;" style="sketch=0;outlineConnect=0;fontColor=#232F3E;gradientColor=none;fillColor=#232F3D;strokeColor=none;dashed=0;verticalLabelPosition=bottom;verticalAlign=top;align=center;html=1;fontSize=12;fontStyle=0;aspect=fixed;pointerEvents=1;shape=mxgraph.aws4.globe;rotation=0;" parent="1" vertex="1">
          <mxGeometry x="40" y="-10" width="80" height="80" as="geometry" />
        </mxCell>
        <mxCell id="26Rw4SoQIi2yUt5TS9dY-18" value="Client" style="sketch=0;outlineConnect=0;fontColor=#232F3E;gradientColor=none;fillColor=#232F3D;strokeColor=none;dashed=0;verticalLabelPosition=bottom;verticalAlign=top;align=center;html=1;fontSize=12;fontStyle=0;aspect=fixed;pointerEvents=1;shape=mxgraph.aws4.client;rotation=0;" parent="1" vertex="1">
          <mxGeometry x="40" y="268.84000000000003" width="80" height="80" as="geometry" />
        </mxCell>
        <mxCell id="lKfjuzd29MsicWuRY0e--34" value="" style="group" vertex="1" connectable="0" parent="1">
          <mxGeometry x="200" y="-190" width="850" height="1292.33" as="geometry" />
        </mxCell>
        <mxCell id="lKfjuzd29MsicWuRY0e--31" value="VPC" style="points=[[0,0],[0.25,0],[0.5,0],[0.75,0],[1,0],[1,0.25],[1,0.5],[1,0.75],[1,1],[0.75,1],[0.5,1],[0.25,1],[0,1],[0,0.75],[0,0.5],[0,0.25]];outlineConnect=0;gradientColor=none;html=1;whiteSpace=wrap;fontSize=12;fontStyle=0;container=1;pointerEvents=0;collapsible=0;recursiveResize=0;shape=mxgraph.aws4.group;grIcon=mxgraph.aws4.group_vpc2;strokeColor=#8C4FFF;fillColor=none;verticalAlign=top;align=left;spacingLeft=30;fontColor=#AAB7B8;dashed=0;" vertex="1" parent="lKfjuzd29MsicWuRY0e--34">
          <mxGeometry x="11.184210526315791" y="32.58620689655173" width="659.8684210526317" height="586.551724137931" as="geometry" />
        </mxCell>
        <mxCell id="lKfjuzd29MsicWuRY0e--32" value="" style="rounded=0;whiteSpace=wrap;html=1;strokeColor=light-dark(#FFFFFF,#FFFFFF);" vertex="1" parent="lKfjuzd29MsicWuRY0e--34">
          <mxGeometry x="637.5" y="315" width="78.28947368421053" height="119.48275862068967" as="geometry" />
        </mxCell>
        <mxCell id="lKfjuzd29MsicWuRY0e--30" value="Public subnet" style="points=[[0,0],[0.25,0],[0.5,0],[0.75,0],[1,0],[1,0.25],[1,0.5],[1,0.75],[1,1],[0.75,1],[0.5,1],[0.25,1],[0,1],[0,0.75],[0,0.5],[0,0.25]];outlineConnect=0;gradientColor=none;html=1;whiteSpace=wrap;fontSize=12;fontStyle=0;container=1;pointerEvents=0;collapsible=0;recursiveResize=0;shape=mxgraph.aws4.group;grIcon=mxgraph.aws4.group_security_group;grStroke=0;strokeColor=#7AA116;fillColor=#F2F6E8;verticalAlign=top;align=left;spacingLeft=30;fontColor=#248814;dashed=0;" vertex="1" parent="lKfjuzd29MsicWuRY0e--34">
          <mxGeometry x="22.368421052631582" y="65.17241379310346" width="279.60526315789474" height="543.1034482758621" as="geometry" />
        </mxCell>
        <mxCell id="26Rw4SoQIi2yUt5TS9dY-19" value="Daily Update&lt;div&gt;&lt;i&gt;&lt;font style=&quot;font-size: 10px;&quot;&gt;SES V2 SendEmail&lt;/font&gt;&lt;/i&gt;&lt;/div&gt;" style="sketch=0;points=[[0,0,0],[0.25,0,0],[0.5,0,0],[0.75,0,0],[1,0,0],[0,1,0],[0.25,1,0],[0.5,1,0],[0.75,1,0],[1,1,0],[0,0.25,0],[0,0.5,0],[0,0.75,0],[1,0.25,0],[1,0.5,0],[1,0.75,0]];outlineConnect=0;fontColor=#232F3E;fillColor=#DD344C;strokeColor=#ffffff;dashed=0;verticalLabelPosition=bottom;verticalAlign=top;align=center;html=1;fontSize=12;fontStyle=0;aspect=fixed;shape=mxgraph.aws4.resourceIcon;resIcon=mxgraph.aws4.simple_email_service;" parent="lKfjuzd29MsicWuRY0e--34" vertex="1">
          <mxGeometry x="55.92105263157896" y="304.1379310344828" width="85.26315789473685" height="85.26315789473685" as="geometry" />
        </mxCell>
        <mxCell id="26Rw4SoQIi2yUt5TS9dY-20" value="Website Endpoint&lt;div&gt;&lt;i&gt;&lt;font style=&quot;font-size: 10px;&quot;&gt;Application Load Balancer&lt;/font&gt;&lt;/i&gt;&lt;/div&gt;" style="sketch=0;points=[[0,0,0],[0.25,0,0],[0.5,0,0],[0.75,0,0],[1,0,0],[0,1,0],[0.25,1,0],[0.5,1,0],[0.75,1,0],[1,1,0],[0,0.25,0],[0,0.5,0],[0,0.75,0],[1,0.25,0],[1,0.5,0],[1,0.75,0]];outlineConnect=0;fontColor=#232F3E;fillColor=#ED7100;strokeColor=#ffffff;dashed=0;verticalLabelPosition=bottom;verticalAlign=top;align=center;html=1;fontSize=12;fontStyle=0;aspect=fixed;shape=mxgraph.aws4.resourceIcon;resIcon=mxgraph.aws4.elastic_load_balancing;" parent="lKfjuzd29MsicWuRY0e--34" vertex="1">
          <mxGeometry x="55.92105263157896" y="456.2068965517242" width="85.26315789473685" height="85.26315789473685" as="geometry" />
        </mxCell>
        <mxCell id="26Rw4SoQIi2yUt5TS9dY-21" value="ETL Pipeline&lt;div&gt;&lt;font style=&quot;font-size: 10px;&quot;&gt;&lt;i&gt;ECS Task&lt;/i&gt;&lt;/font&gt;&lt;/div&gt;&lt;div&gt;&lt;font style=&quot;font-size: 10px;&quot;&gt;&lt;i&gt;Runs on: Fargate&lt;/i&gt;&lt;/font&gt;&lt;/div&gt;" style="sketch=0;points=[[0,0,0],[0.25,0,0],[0.5,0,0],[0.75,0,0],[1,0,0],[0,1,0],[0.25,1,0],[0.5,1,0],[0.75,1,0],[1,1,0],[0,0.25,0],[0,0.5,0],[0,0.75,0],[1,0.25,0],[1,0.5,0],[1,0.75,0]];outlineConnect=0;fontColor=#232F3E;fillColor=#ED7100;strokeColor=#ffffff;dashed=0;verticalLabelPosition=bottom;verticalAlign=top;align=center;html=1;fontSize=12;fontStyle=0;aspect=fixed;shape=mxgraph.aws4.resourceIcon;resIcon=mxgraph.aws4.ecs;" parent="lKfjuzd29MsicWuRY0e--34" vertex="1">
          <mxGeometry x="55.92105263157896" y="119.48275862068967" width="85.26315789473685" height="85.26315789473685" as="geometry" />
        </mxCell>
        <mxCell id="26Rw4SoQIi2yUt5TS9dY-22" value="" style="sketch=0;points=[[0,0,0],[0.25,0,0],[0.5,0,0],[0.75,0,0],[1,0,0],[0,1,0],[0.25,1,0],[0.5,1,0],[0.75,1,0],[1,1,0],[0,0.25,0],[0,0.5,0],[0,0.75,0],[1,0.25,0],[1,0.5,0],[1,0.75,0]];outlineConnect=0;fontColor=#232F3E;fillColor=#ED7100;strokeColor=#ffffff;dashed=0;verticalLabelPosition=bottom;verticalAlign=top;align=center;html=1;fontSize=12;fontStyle=0;aspect=fixed;shape=mxgraph.aws4.resourceIcon;resIcon=mxgraph.aws4.fargate;rotation=0;" parent="lKfjuzd29MsicWuRY0e--34" vertex="1">
          <mxGeometry x="55.92105263157896" y="184.49137931034483" width="20.25" height="20.25" as="geometry" />
        </mxCell>
        <mxCell id="lKfjuzd29MsicWuRY0e--16" style="edgeStyle=orthogonalEdgeStyle;rounded=0;orthogonalLoop=1;jettySize=auto;html=1;entryX=0.039;entryY=0.072;entryDx=0;entryDy=0;entryPerimeter=0;" edge="1" parent="lKfjuzd29MsicWuRY0e--34" source="26Rw4SoQIi2yUt5TS9dY-23" target="lKfjuzd29MsicWuRY0e--8">
          <mxGeometry relative="1" as="geometry">
            <mxPoint x="750" y="434" as="targetPoint" />
            <Array as="points">
              <mxPoint x="600" y="532" />
              <mxPoint x="600" y="380" />
              <mxPoint x="727" y="380" />
              <mxPoint x="727" y="440" />
            </Array>
          </mxGeometry>
        </mxCell>
        <mxCell id="26Rw4SoQIi2yUt5TS9dY-23" value="Website Sever&lt;div&gt;&lt;i&gt;&lt;font style=&quot;font-size: 10px;&quot;&gt;ECS Service&lt;/font&gt;&lt;/i&gt;&lt;/div&gt;&lt;div&gt;&lt;i&gt;&lt;font style=&quot;font-size: 10px;&quot;&gt;Runs on: EC2&lt;/font&gt;&lt;/i&gt;&lt;/div&gt;" style="sketch=0;points=[[0,0,0],[0.25,0,0],[0.5,0,0],[0.75,0,0],[1,0,0],[0,1,0],[0.25,1,0],[0.5,1,0],[0.75,1,0],[1,1,0],[0,0.25,0],[0,0.5,0],[0,0.75,0],[1,0.25,0],[1,0.5,0],[1,0.75,0]];outlineConnect=0;fontColor=#232F3E;fillColor=#ED7100;strokeColor=#ffffff;dashed=0;verticalLabelPosition=bottom;verticalAlign=top;align=center;html=1;fontSize=12;fontStyle=0;aspect=fixed;shape=mxgraph.aws4.resourceIcon;resIcon=mxgraph.aws4.ecs;" parent="lKfjuzd29MsicWuRY0e--34" vertex="1">
          <mxGeometry x="190.13157894736844" y="456.2068965517242" width="85.26315789473685" height="85.26315789473685" as="geometry" />
        </mxCell>
        <mxCell id="26Rw4SoQIi2yUt5TS9dY-24" value="" style="sketch=0;points=[[0,0,0],[0.25,0,0],[0.5,0,0],[0.75,0,0],[1,0,0],[0,1,0],[0.25,1,0],[0.5,1,0],[0.75,1,0],[1,1,0],[0,0.25,0],[0,0.5,0],[0,0.75,0],[1,0.25,0],[1,0.5,0],[1,0.75,0]];outlineConnect=0;fontColor=#232F3E;fillColor=#ED7100;strokeColor=#ffffff;dashed=0;verticalLabelPosition=bottom;verticalAlign=top;align=center;html=1;fontSize=12;fontStyle=0;aspect=fixed;shape=mxgraph.aws4.resourceIcon;resIcon=mxgraph.aws4.ec2;rotation=0;" parent="lKfjuzd29MsicWuRY0e--34" vertex="1">
          <mxGeometry x="190.13157894736844" y="521.2155172413793" width="20.25" height="20.25" as="geometry" />
        </mxCell>
        <mxCell id="26Rw4SoQIi2yUt5TS9dY-25" value="Email Generator&lt;div&gt;&lt;i&gt;&lt;font style=&quot;font-size: 10px;&quot;&gt;Lambda&lt;/font&gt;&lt;/i&gt;&lt;/div&gt;" style="sketch=0;points=[[0,0,0],[0.25,0,0],[0.5,0,0],[0.75,0,0],[1,0,0],[0,1,0],[0.25,1,0],[0.5,1,0],[0.75,1,0],[1,1,0],[0,0.25,0],[0,0.5,0],[0,0.75,0],[1,0.25,0],[1,0.5,0],[1,0.75,0]];outlineConnect=0;fontColor=#232F3E;fillColor=#ED7100;strokeColor=#ffffff;dashed=0;verticalLabelPosition=bottom;verticalAlign=top;align=center;html=1;fontSize=12;fontStyle=0;aspect=fixed;shape=mxgraph.aws4.resourceIcon;resIcon=mxgraph.aws4.lambda;" parent="lKfjuzd29MsicWuRY0e--34" vertex="1">
          <mxGeometry x="167.76315789473685" y="304.1379310344828" width="85.26315789473685" height="85.26315789473685" as="geometry" />
        </mxCell>
        <mxCell id="26Rw4SoQIi2yUt5TS9dY-26" style="edgeStyle=orthogonalEdgeStyle;rounded=0;orthogonalLoop=1;jettySize=auto;html=1;entryX=1;entryY=0.5;entryDx=0;entryDy=0;entryPerimeter=0;" parent="lKfjuzd29MsicWuRY0e--34" source="26Rw4SoQIi2yUt5TS9dY-25" target="26Rw4SoQIi2yUt5TS9dY-19" edge="1">
          <mxGeometry relative="1" as="geometry" />
        </mxCell>
        <mxCell id="26Rw4SoQIi2yUt5TS9dY-28" value="Judgment HTMLs&lt;div&gt;&lt;i&gt;&lt;font style=&quot;font-size: 10px;&quot;&gt;S3 Bucket&lt;/font&gt;&lt;/i&gt;&lt;/div&gt;" style="sketch=0;points=[[0,0,0],[0.25,0,0],[0.5,0,0],[0.75,0,0],[1,0,0],[0,1,0],[0.25,1,0],[0.5,1,0],[0.75,1,0],[1,1,0],[0,0.25,0],[0,0.5,0],[0,0.75,0],[1,0.25,0],[1,0.5,0],[1,0.75,0]];outlineConnect=0;fontColor=#232F3E;fillColor=#7AA116;strokeColor=#ffffff;dashed=0;verticalLabelPosition=bottom;verticalAlign=top;align=center;html=1;fontSize=12;fontStyle=0;aspect=fixed;shape=mxgraph.aws4.resourceIcon;resIcon=mxgraph.aws4.s3;" parent="lKfjuzd29MsicWuRY0e--34" vertex="1">
          <mxGeometry x="749.342105263158" y="223.75862068965517" width="85.26315789473685" height="85.26315789473685" as="geometry" />
        </mxCell>
        <mxCell id="26Rw4SoQIi2yUt5TS9dY-29" value="SES Contact List&lt;div&gt;&lt;i&gt;&lt;font style=&quot;font-size: 10px;&quot;&gt;S3 Bucket&lt;/font&gt;&lt;/i&gt;&lt;/div&gt;&lt;div&gt;&lt;i&gt;&lt;font style=&quot;font-size: 10px;&quot;&gt;Encrypted with: KMS&lt;/font&gt;&lt;/i&gt;&lt;/div&gt;" style="sketch=0;points=[[0,0,0],[0.25,0,0],[0.5,0,0],[0.75,0,0],[1,0,0],[0,1,0],[0.25,1,0],[0.5,1,0],[0.75,1,0],[1,1,0],[0,0.25,0],[0,0.5,0],[0,0.75,0],[1,0.25,0],[1,0.5,0],[1,0.75,0]];outlineConnect=0;fontColor=#232F3E;fillColor=#7AA116;strokeColor=#ffffff;dashed=0;verticalLabelPosition=bottom;verticalAlign=top;align=center;html=1;fontSize=12;fontStyle=0;aspect=fixed;shape=mxgraph.aws4.resourceIcon;resIcon=mxgraph.aws4.s3;" parent="lKfjuzd29MsicWuRY0e--34" vertex="1">
          <mxGeometry x="749.342105263158" y="369.8534482758621" width="85.26315789473685" height="85.26315789473685" as="geometry" />
        </mxCell>
        <mxCell id="26Rw4SoQIi2yUt5TS9dY-31" value="" style="sketch=0;points=[[0,0,0],[0.25,0,0],[0.5,0,0],[0.75,0,0],[1,0,0],[0,1,0],[0.25,1,0],[0.5,1,0],[0.75,1,0],[1,1,0],[0,0.25,0],[0,0.5,0],[0,0.75,0],[1,0.25,0],[1,0.5,0],[1,0.75,0]];outlineConnect=0;fontColor=#232F3E;fillColor=#7AA116;strokeColor=#ffffff;dashed=0;verticalLabelPosition=bottom;verticalAlign=top;align=center;html=1;fontSize=12;fontStyle=0;aspect=fixed;shape=mxgraph.aws4.resourceIcon;resIcon=mxgraph.aws4.simple_email_service;rotation=0;" parent="lKfjuzd29MsicWuRY0e--34" vertex="1">
          <mxGeometry x="815.4242105263158" y="435.938275862069" width="19.18421052631579" height="19.18421052631579" as="geometry" />
        </mxCell>
        <mxCell id="lKfjuzd29MsicWuRY0e--35" style="edgeStyle=orthogonalEdgeStyle;rounded=0;orthogonalLoop=1;jettySize=auto;html=1;" edge="1" parent="lKfjuzd29MsicWuRY0e--34" source="lKfjuzd29MsicWuRY0e--1" target="26Rw4SoQIi2yUt5TS9dY-21">
          <mxGeometry relative="1" as="geometry">
            <Array as="points">
              <mxPoint x="320" y="190" />
              <mxPoint x="320" y="190" />
            </Array>
          </mxGeometry>
        </mxCell>
        <mxCell id="lKfjuzd29MsicWuRY0e--1" value="Daily Pipeline Schedule&lt;div&gt;&lt;i&gt;&lt;font style=&quot;font-size: 10px;&quot;&gt;00:01 Daily&lt;/font&gt;&lt;/i&gt;&lt;/div&gt;" style="sketch=0;outlineConnect=0;fontColor=#232F3E;gradientColor=none;fillColor=#E7157B;strokeColor=none;dashed=0;verticalLabelPosition=bottom;verticalAlign=top;align=center;html=1;fontSize=12;fontStyle=0;aspect=fixed;pointerEvents=1;shape=mxgraph.aws4.eventbridge_scheduler;" vertex="1" parent="lKfjuzd29MsicWuRY0e--34">
          <mxGeometry x="324.3421052631579" y="154.30517241379312" width="83.13157894736842" height="83.13157894736842" as="geometry" />
        </mxCell>
        <mxCell id="lKfjuzd29MsicWuRY0e--11" style="edgeStyle=orthogonalEdgeStyle;rounded=0;orthogonalLoop=1;jettySize=auto;html=1;" edge="1" parent="lKfjuzd29MsicWuRY0e--34" source="lKfjuzd29MsicWuRY0e--2" target="lKfjuzd29MsicWuRY0e--7">
          <mxGeometry relative="1" as="geometry">
            <Array as="points">
              <mxPoint x="301.97368421052636" y="423.62068965517244" />
              <mxPoint x="301.97368421052636" y="423.62068965517244" />
            </Array>
          </mxGeometry>
        </mxCell>
        <mxCell id="lKfjuzd29MsicWuRY0e--2" value="Daily Email Schedule&lt;div&gt;&lt;i&gt;&lt;font style=&quot;font-size: 10px;&quot;&gt;06:00 Daily&lt;/font&gt;&lt;/i&gt;&lt;/div&gt;" style="sketch=0;outlineConnect=0;fontColor=#232F3E;gradientColor=none;fillColor=#E7157B;strokeColor=none;dashed=0;verticalLabelPosition=bottom;verticalAlign=top;align=center;html=1;fontSize=12;fontStyle=0;aspect=fixed;pointerEvents=1;shape=mxgraph.aws4.eventbridge_scheduler;" vertex="1" parent="lKfjuzd29MsicWuRY0e--34">
          <mxGeometry x="324.3421052631579" y="373.0734482758621" width="83.13157894736842" height="83.13157894736842" as="geometry" />
        </mxCell>
        <mxCell id="lKfjuzd29MsicWuRY0e--6" value="" style="shape=link;html=1;rounded=0;exitX=1;exitY=0.5;exitDx=0;exitDy=0;exitPerimeter=0;entryX=0;entryY=0.5;entryDx=0;entryDy=0;entryPerimeter=0;" edge="1" parent="lKfjuzd29MsicWuRY0e--34" source="26Rw4SoQIi2yUt5TS9dY-20" target="26Rw4SoQIi2yUt5TS9dY-23">
          <mxGeometry width="100" relative="1" as="geometry">
            <mxPoint x="190.13157894736844" y="423.62068965517244" as="sourcePoint" />
            <mxPoint x="301.97368421052636" y="423.62068965517244" as="targetPoint" />
          </mxGeometry>
        </mxCell>
        <mxCell id="lKfjuzd29MsicWuRY0e--7" value="AWS Step Functions workflow" style="points=[[0,0],[0.25,0],[0.5,0],[0.75,0],[1,0],[1,0.25],[1,0.5],[1,0.75],[1,1],[0.75,1],[0.5,1],[0.25,1],[0,1],[0,0.75],[0,0.5],[0,0.25]];outlineConnect=0;gradientColor=none;html=1;whiteSpace=wrap;fontSize=12;fontStyle=0;container=1;pointerEvents=0;collapsible=0;recursiveResize=0;shape=mxgraph.aws4.group;grIcon=mxgraph.aws4.group_aws_step_functions_workflow;strokeColor=#CD2264;fillColor=none;verticalAlign=top;align=left;spacingLeft=30;fontColor=#CD2264;dashed=0;" vertex="1" parent="lKfjuzd29MsicWuRY0e--34">
          <mxGeometry x="33.55263157894737" y="271.55172413793105" width="246.05263157894737" height="162.93103448275863" as="geometry" />
        </mxCell>
        <mxCell id="lKfjuzd29MsicWuRY0e--8" value="" style="sketch=0;pointerEvents=1;shadow=0;dashed=0;html=1;strokeColor=none;fillColor=#7AA116;labelPosition=center;verticalLabelPosition=bottom;verticalAlign=top;align=center;outlineConnect=0;shape=mxgraph.veeam2.encrypted;rotation=0;" vertex="1" parent="lKfjuzd29MsicWuRY0e--34">
          <mxGeometry x="749.342105263158" y="438.82758620689657" width="16.776315789473685" height="16.293103448275865" as="geometry" />
        </mxCell>
        <mxCell id="lKfjuzd29MsicWuRY0e--9" value="S3 Endpoint&lt;div&gt;&lt;i&gt;&lt;font style=&quot;font-size: 10px;&quot;&gt;VPC Gateway&lt;/font&gt;&lt;/i&gt;&lt;/div&gt;" style="sketch=0;outlineConnect=0;fontColor=#232F3E;gradientColor=none;fillColor=#8C4FFF;strokeColor=none;dashed=0;verticalLabelPosition=bottom;verticalAlign=top;align=center;html=1;fontSize=12;fontStyle=0;aspect=fixed;pointerEvents=1;shape=mxgraph.aws4.endpoint;" vertex="1" parent="lKfjuzd29MsicWuRY0e--34">
          <mxGeometry x="626.3157894736843" y="310.65517241379314" width="83.13157894736842" height="83.13157894736842" as="geometry" />
        </mxCell>
        <mxCell id="lKfjuzd29MsicWuRY0e--15" style="edgeStyle=orthogonalEdgeStyle;rounded=0;orthogonalLoop=1;jettySize=auto;html=1;exitX=0;exitY=0.5;exitDx=0;exitDy=0;exitPerimeter=0;" edge="1" parent="lKfjuzd29MsicWuRY0e--34" source="26Rw4SoQIi2yUt5TS9dY-29">
          <mxGeometry relative="1" as="geometry">
            <mxPoint x="257.0987654320988" y="370" as="targetPoint" />
            <Array as="points">
              <mxPoint x="749" y="414" />
              <mxPoint x="738" y="414" />
              <mxPoint x="738" y="370" />
            </Array>
          </mxGeometry>
        </mxCell>
        <mxCell id="lKfjuzd29MsicWuRY0e--19" style="edgeStyle=orthogonalEdgeStyle;rounded=0;orthogonalLoop=1;jettySize=auto;html=1;" edge="1" parent="lKfjuzd29MsicWuRY0e--34" source="26Rw4SoQIi2yUt5TS9dY-28" target="26Rw4SoQIi2yUt5TS9dY-23">
          <mxGeometry relative="1" as="geometry">
            <mxPoint x="283.3333333333333" y="510" as="targetPoint" />
            <Array as="points">
              <mxPoint x="738" y="261" />
              <mxPoint x="738" y="340" />
              <mxPoint x="537" y="340" />
              <mxPoint x="537" y="510" />
            </Array>
          </mxGeometry>
        </mxCell>
        <mxCell id="lKfjuzd29MsicWuRY0e--21" style="edgeStyle=orthogonalEdgeStyle;rounded=0;orthogonalLoop=1;jettySize=auto;html=1;entryX=0;entryY=0.25;entryDx=0;entryDy=0;entryPerimeter=0;" edge="1" parent="lKfjuzd29MsicWuRY0e--34" source="26Rw4SoQIi2yUt5TS9dY-21" target="26Rw4SoQIi2yUt5TS9dY-28">
          <mxGeometry relative="1" as="geometry">
            <Array as="points">
              <mxPoint x="310" y="130" />
              <mxPoint x="310" y="70" />
              <mxPoint x="660" y="70" />
              <mxPoint x="660" y="330" />
              <mxPoint x="727" y="330" />
              <mxPoint x="727" y="245" />
            </Array>
          </mxGeometry>
        </mxCell>
        <mxCell id="lKfjuzd29MsicWuRY0e--29" value="Private subnet" style="points=[[0,0],[0.25,0],[0.5,0],[0.75,0],[1,0],[1,0.25],[1,0.5],[1,0.75],[1,1],[0.75,1],[0.5,1],[0.25,1],[0,1],[0,0.75],[0,0.5],[0,0.25]];outlineConnect=0;gradientColor=none;html=1;whiteSpace=wrap;fontSize=12;fontStyle=0;container=1;pointerEvents=0;collapsible=0;recursiveResize=0;shape=mxgraph.aws4.group;grIcon=mxgraph.aws4.group_security_group;grStroke=0;strokeColor=#00A4A6;fillColor=#E6F6F7;verticalAlign=top;align=left;spacingLeft=30;fontColor=#147EBA;dashed=0;" vertex="1" parent="lKfjuzd29MsicWuRY0e--34">
          <mxGeometry x="492.11" y="92.33" width="137.89" height="179.22" as="geometry" />
        </mxCell>
        <mxCell id="26Rw4SoQIi2yUt5TS9dY-27" value="Judgments Data&lt;div&gt;&lt;i&gt;&lt;font style=&quot;font-size: 10px;&quot;&gt;PostgreSQL Database&lt;/font&gt;&lt;/i&gt;&lt;/div&gt;&lt;div&gt;&lt;i&gt;&lt;font style=&quot;font-size: 10px;&quot;&gt;Runs on: RDS&lt;/font&gt;&lt;/i&gt;&lt;/div&gt;" style="sketch=0;outlineConnect=0;fontColor=#232F3E;gradientColor=none;fillColor=#C925D1;strokeColor=none;dashed=0;verticalLabelPosition=bottom;verticalAlign=top;align=center;html=1;fontSize=12;fontStyle=0;aspect=fixed;pointerEvents=1;shape=mxgraph.aws4.rds_postgresql_instance;" parent="lKfjuzd29MsicWuRY0e--34" vertex="1">
          <mxGeometry x="514.4736842105264" y="119.48275862068967" width="85.26315789473685" height="85.26315789473685" as="geometry" />
        </mxCell>
        <mxCell id="lKfjuzd29MsicWuRY0e--18" style="edgeStyle=orthogonalEdgeStyle;rounded=0;orthogonalLoop=1;jettySize=auto;html=1;" edge="1" parent="lKfjuzd29MsicWuRY0e--34" source="26Rw4SoQIi2yUt5TS9dY-27" target="26Rw4SoQIi2yUt5TS9dY-23">
          <mxGeometry relative="1" as="geometry">
            <Array as="points">
              <mxPoint x="640" y="162" />
              <mxPoint x="640" y="304" />
              <mxPoint x="503" y="304" />
              <mxPoint x="503" y="500" />
            </Array>
          </mxGeometry>
        </mxCell>
        <mxCell id="lKfjuzd29MsicWuRY0e--23" style="edgeStyle=orthogonalEdgeStyle;rounded=0;orthogonalLoop=1;jettySize=auto;html=1;" edge="1" parent="lKfjuzd29MsicWuRY0e--34" source="26Rw4SoQIi2yUt5TS9dY-27" target="26Rw4SoQIi2yUt5TS9dY-25">
          <mxGeometry relative="1" as="geometry">
            <Array as="points">
              <mxPoint x="460" y="185" />
              <mxPoint x="460" y="326" />
            </Array>
          </mxGeometry>
        </mxCell>
        <mxCell id="lKfjuzd29MsicWuRY0e--20" style="edgeStyle=orthogonalEdgeStyle;rounded=0;orthogonalLoop=1;jettySize=auto;html=1;" edge="1" parent="lKfjuzd29MsicWuRY0e--34" source="26Rw4SoQIi2yUt5TS9dY-21" target="26Rw4SoQIi2yUt5TS9dY-27">
          <mxGeometry relative="1" as="geometry">
            <Array as="points">
              <mxPoint x="458.5526315789474" y="141.20689655172416" />
              <mxPoint x="458.5526315789474" y="141.20689655172416" />
            </Array>
          </mxGeometry>
        </mxCell>
        <mxCell id="lKfjuzd29MsicWuRY0e--33" value="AWS Cloud" style="points=[[0,0],[0.25,0],[0.5,0],[0.75,0],[1,0],[1,0.25],[1,0.5],[1,0.75],[1,1],[0.75,1],[0.5,1],[0.25,1],[0,1],[0,0.75],[0,0.5],[0,0.25]];outlineConnect=0;gradientColor=none;html=1;whiteSpace=wrap;fontSize=12;fontStyle=0;container=1;pointerEvents=0;collapsible=0;recursiveResize=0;shape=mxgraph.aws4.group;grIcon=mxgraph.aws4.group_aws_cloud_alt;strokeColor=#232F3E;fillColor=none;verticalAlign=top;align=left;spacingLeft=30;fontColor=#232F3E;dashed=0;" vertex="1" parent="lKfjuzd29MsicWuRY0e--34">
          <mxGeometry width="850.0000000000001" height="630" as="geometry" />
        </mxCell>
        <mxCell id="lKfjuzd29MsicWuRY0e--121" value="" style="sketch=0;points=[[0,0,0],[0.25,0,0],[0.5,0,0],[0.75,0,0],[1,0,0],[0,1,0],[0.25,1,0],[0.5,1,0],[0.75,1,0],[1,1,0],[0,0.25,0],[0,0.5,0],[0,0.75,0],[1,0.25,0],[1,0.5,0],[1,0.75,0]];outlineConnect=0;fontColor=#232F3E;fillColor=#C925D1;strokeColor=#ffffff;dashed=0;verticalLabelPosition=bottom;verticalAlign=top;align=center;html=1;fontSize=12;fontStyle=0;aspect=fixed;shape=mxgraph.aws4.resourceIcon;resIcon=mxgraph.aws4.rds;" vertex="1" parent="lKfjuzd29MsicWuRY0e--33">
          <mxGeometry x="514" y="120" width="90" height="90" as="geometry" />
        </mxCell>
        <mxCell id="lKfjuzd29MsicWuRY0e--39" value="" style="sketch=0;points=[[0,0,0],[0.25,0,0],[0.5,0,0],[0.75,0,0],[1,0,0],[0,1,0],[0.25,1,0],[0.5,1,0],[0.75,1,0],[1,1,0],[0,0.25,0],[0,0.5,0],[0,0.75,0],[1,0.25,0],[1,0.5,0],[1,0.75,0]];outlineConnect=0;fontColor=#232F3E;fillColor=#ED7100;strokeColor=#ffffff;dashed=0;verticalLabelPosition=bottom;verticalAlign=top;align=center;html=1;fontSize=12;fontStyle=0;aspect=fixed;shape=mxgraph.aws4.resourceIcon;resIcon=mxgraph.aws4.ec2;rotation=0;" vertex="1" parent="lKfjuzd29MsicWuRY0e--34">
          <mxGeometry x="58.55" y="120" width="84.75" height="84.75" as="geometry" />
        </mxCell>
        <mxCell id="lKfjuzd29MsicWuRY0e--40" value="" style="sketch=0;points=[[0,0,0],[0.25,0,0],[0.5,0,0],[0.75,0,0],[1,0,0],[0,1,0],[0.25,1,0],[0.5,1,0],[0.75,1,0],[1,1,0],[0,0.25,0],[0,0.5,0],[0,0.75,0],[1,0.25,0],[1,0.5,0],[1,0.75,0]];outlineConnect=0;fontColor=#232F3E;fillColor=#ED7100;strokeColor=#ffffff;dashed=0;verticalLabelPosition=bottom;verticalAlign=top;align=center;html=1;fontSize=12;fontStyle=0;aspect=fixed;shape=mxgraph.aws4.resourceIcon;resIcon=mxgraph.aws4.ecs;" vertex="1" parent="lKfjuzd29MsicWuRY0e--34">
          <mxGeometry x="55.92" y="120" width="20" height="20" as="geometry" />
        </mxCell>
        <mxCell id="lKfjuzd29MsicWuRY0e--77" value="" style="sketch=0;points=[[0,0,0],[0.25,0,0],[0.5,0,0],[0.75,0,0],[1,0,0],[0,1,0],[0.25,1,0],[0.5,1,0],[0.75,1,0],[1,1,0],[0,0.25,0],[0,0.5,0],[0,0.75,0],[1,0.25,0],[1,0.5,0],[1,0.75,0]];outlineConnect=0;fontColor=#232F3E;fillColor=#ED7100;strokeColor=#ffffff;dashed=0;verticalLabelPosition=bottom;verticalAlign=top;align=center;html=1;fontSize=12;fontStyle=0;aspect=fixed;shape=mxgraph.aws4.resourceIcon;resIcon=mxgraph.aws4.ecs;" vertex="1" parent="lKfjuzd29MsicWuRY0e--34">
          <mxGeometry x="167.76" y="304.14" width="20" height="20" as="geometry" />
        </mxCell>
        <mxCell id="lKfjuzd29MsicWuRY0e--78" value="" style="sketch=0;points=[[0,0,0],[0.25,0,0],[0.5,0,0],[0.75,0,0],[1,0,0],[0,1,0],[0.25,1,0],[0.5,1,0],[0.75,1,0],[1,1,0],[0,0.25,0],[0,0.5,0],[0,0.75,0],[1,0.25,0],[1,0.5,0],[1,0.75,0]];outlineConnect=0;fontColor=#232F3E;fillColor=#ED7100;strokeColor=#ffffff;dashed=0;verticalLabelPosition=bottom;verticalAlign=top;align=center;html=1;fontSize=12;fontStyle=0;aspect=fixed;shape=mxgraph.aws4.resourceIcon;resIcon=mxgraph.aws4.fargate;rotation=0;" vertex="1" parent="lKfjuzd29MsicWuRY0e--34">
          <mxGeometry x="190.13" y="460" width="81.47" height="81.47" as="geometry" />
        </mxCell>
        <mxCell id="lKfjuzd29MsicWuRY0e--79" value="" style="sketch=0;points=[[0,0,0],[0.25,0,0],[0.5,0,0],[0.75,0,0],[1,0,0],[0,1,0],[0.25,1,0],[0.5,1,0],[0.75,1,0],[1,1,0],[0,0.25,0],[0,0.5,0],[0,0.75,0],[1,0.25,0],[1,0.5,0],[1,0.75,0]];outlineConnect=0;fontColor=#232F3E;fillColor=#ED7100;strokeColor=#ffffff;dashed=0;verticalLabelPosition=bottom;verticalAlign=top;align=center;html=1;fontSize=12;fontStyle=0;aspect=fixed;shape=mxgraph.aws4.resourceIcon;resIcon=mxgraph.aws4.ecs;" vertex="1" parent="lKfjuzd29MsicWuRY0e--34">
          <mxGeometry x="190.13" y="456.21000000000004" width="20" height="20" as="geometry" />
        </mxCell>
        <mxCell id="lKfjuzd29MsicWuRY0e--122" value="" style="sketch=0;points=[[0,0,0],[0.25,0,0],[0.5,0,0],[0.75,0,0],[1,0,0],[0,1,0],[0.25,1,0],[0.5,1,0],[0.75,1,0],[1,1,0],[0,0.25,0],[0,0.5,0],[0,0.75,0],[1,0.25,0],[1,0.5,0],[1,0.75,0]];outlineConnect=0;fontColor=#232F3E;fillColor=#E7157B;strokeColor=#ffffff;dashed=0;verticalLabelPosition=bottom;verticalAlign=top;align=center;html=1;fontSize=12;fontStyle=0;aspect=fixed;shape=mxgraph.aws4.resourceIcon;resIcon=mxgraph.aws4.eventbridge;" vertex="1" parent="lKfjuzd29MsicWuRY0e--34">
          <mxGeometry x="320" y="149.97" width="87.47" height="87.47" as="geometry" />
        </mxCell>
        <mxCell id="lKfjuzd29MsicWuRY0e--123" value="" style="sketch=0;points=[[0,0,0],[0.25,0,0],[0.5,0,0],[0.75,0,0],[1,0,0],[0,1,0],[0.25,1,0],[0.5,1,0],[0.75,1,0],[1,1,0],[0,0.25,0],[0,0.5,0],[0,0.75,0],[1,0.25,0],[1,0.5,0],[1,0.75,0]];outlineConnect=0;fontColor=#232F3E;fillColor=#E7157B;strokeColor=#ffffff;dashed=0;verticalLabelPosition=bottom;verticalAlign=top;align=center;html=1;fontSize=12;fontStyle=0;aspect=fixed;shape=mxgraph.aws4.resourceIcon;resIcon=mxgraph.aws4.eventbridge;" vertex="1" parent="lKfjuzd29MsicWuRY0e--34">
          <mxGeometry x="324.34" y="374" width="86" height="86" as="geometry" />
        </mxCell>
        <mxCell id="lKfjuzd29MsicWuRY0e--13" style="edgeStyle=orthogonalEdgeStyle;rounded=0;orthogonalLoop=1;jettySize=auto;html=1;" edge="1" parent="1" source="26Rw4SoQIi2yUt5TS9dY-17" target="26Rw4SoQIi2yUt5TS9dY-21">
          <mxGeometry relative="1" as="geometry">
            <Array as="points">
              <mxPoint x="163" y="30" />
              <mxPoint x="163" y="-20" />
            </Array>
          </mxGeometry>
        </mxCell>
        <mxCell id="lKfjuzd29MsicWuRY0e--5" value="" style="shape=link;html=1;rounded=0;entryX=0;entryY=0.5;entryDx=0;entryDy=0;entryPerimeter=0;" edge="1" parent="1" source="26Rw4SoQIi2yUt5TS9dY-18" target="26Rw4SoQIi2yUt5TS9dY-20">
          <mxGeometry width="100" relative="1" as="geometry">
            <mxPoint x="360" y="250" as="sourcePoint" />
            <mxPoint x="460" y="250" as="targetPoint" />
          </mxGeometry>
        </mxCell>
        <mxCell id="lKfjuzd29MsicWuRY0e--37" value="" style="shape=link;html=1;rounded=0;entryX=0.5;entryY=0;entryDx=0;entryDy=0;entryPerimeter=0;exitX=0.995;exitY=0.524;exitDx=0;exitDy=0;exitPerimeter=0;" edge="1" parent="1" source="26Rw4SoQIi2yUt5TS9dY-15" target="26Rw4SoQIi2yUt5TS9dY-21">
          <mxGeometry width="100" relative="1" as="geometry">
            <mxPoint x="90" y="-10" as="sourcePoint" />
            <mxPoint x="266" y="319" as="targetPoint" />
            <Array as="points">
              <mxPoint x="299" y="-90" />
            </Array>
          </mxGeometry>
        </mxCell>
        <mxCell id="lKfjuzd29MsicWuRY0e--4" style="edgeStyle=orthogonalEdgeStyle;rounded=0;orthogonalLoop=1;jettySize=auto;html=1;" edge="1" parent="1" source="26Rw4SoQIi2yUt5TS9dY-19" target="26Rw4SoQIi2yUt5TS9dY-18">
          <mxGeometry relative="1" as="geometry">
            <Array as="points">
              <mxPoint x="80" y="160" />
            </Array>
          </mxGeometry>
        </mxCell>
      </root>
    </mxGraphModel>
  </diagram>
</mxfile>
